# xmcd CD database file
#
# Track frame offsets:
#	182
#	32215
#	62912
#	86792
#	116005
#	154037
#
# Disc length: 2206 seconds
#
# Revision: 0
# Processed by: cddbd v1.5.2PL0 Copyright (c) Steve Scherf et al.
# Submitted via: CDex 1.70beta2
#
DISCID=4c089c06
DTITLE=Robin Kenyatta's - Free state band
DYEAR=1993
DGENRE=Jazz
TTITLE0=Angela
TTITLE1=Zulu princess
TTITLE2=Gun the honeydripper
TTITLE3=If she can't do it (Part 1)
TTITLE4=If she can't do it (Part 2)
TTITLE5=Calling on you
EXTD=YEAR: 1993
EXTT0=
EXTT1=
EXTT2=
EXTT3=
EXTT4=
EXTT5=
PLAYORDER=
